<svg xmlns="http://www.w3.org/2000/svg" width="71.5" height="65.543" viewBox="0 0 71.5 65.543">
  <g id="imagen_2_" data-name="imagen (2)" transform="translate(0 -0.492)">
    <path id="Trazado_81092" data-name="Trazado 81092" d="M18.619,179.86a11.155,11.155,0,0,1-10.552-7.6l-.1-.343a10.874,10.874,0,0,1-.516-3.229V148.375L.219,172.5a6.766,6.766,0,0,0,4.743,8.208L51.03,193.046a6.834,6.834,0,0,0,1.716.22,6.643,6.643,0,0,0,6.438-4.871l2.684-8.535Zm0,0" transform="translate(0 -127.231)" fill="#bcc7d5"/>
    <path id="Trazado_81093" data-name="Trazado 81093" d="M155.279,76.409a5.959,5.959,0,1,0-5.959-5.959A5.964,5.964,0,0,0,155.279,76.409Zm0,0" transform="translate(-128.467 -55.062)" fill="#bcc7d5"/>
    <path id="Trazado_81094" data-name="Trazado 81094" d="M137.457.492H92.768A7.459,7.459,0,0,0,85.32,7.941V40.712a7.459,7.459,0,0,0,7.448,7.448h44.688a7.459,7.459,0,0,0,7.448-7.448V7.941A7.459,7.459,0,0,0,137.457.492ZM92.768,6.451h44.688a1.49,1.49,0,0,1,1.49,1.49V29.09l-9.411-10.982a5.336,5.336,0,0,0-4-1.832,5.207,5.207,0,0,0-3.98,1.88L110.495,31.437l-3.6-3.6a5.229,5.229,0,0,0-7.388,0l-8.223,8.22V7.941A1.49,1.49,0,0,1,92.768,6.451Zm0,0" transform="translate(-73.405)" fill="#bcc7d5"/>
  </g>
</svg>
