<svg xmlns="http://www.w3.org/2000/svg" xmlns:xlink="http://www.w3.org/1999/xlink" width="326.75" height="8" viewBox="0 0 326.75 8">
  <defs>
    <clipPath id="clip-path">
      <rect width="6" height="303" fill="none"/>
    </clipPath>
  </defs>
  <g id="Grupo_15807" data-name="Grupo 15807" transform="translate(-488 -860)">
    <g id="line" transform="translate(501 866) rotate(-90)" clip-path="url(#clip-path)">
      <g transform="translate(-128 -133)">
        <rect id="round" width="3" height="3" rx="1.5" transform="translate(128 133)" fill="rgba(120,132,158,0.29)"/>
      </g>
      <g transform="translate(-128 -124)">
        <rect id="round-2" data-name="round" width="3" height="3" rx="1.5" transform="translate(128 133)" fill="rgba(120,132,158,0.29)"/>
      </g>
      <g transform="translate(-128 -115)">
        <rect id="round-3" data-name="round" width="3" height="3" rx="1.5" transform="translate(128 133)" fill="rgba(120,132,158,0.29)"/>
      </g>
      <g transform="translate(-128 -106)">
        <rect id="round-4" data-name="round" width="3" height="3" rx="1.5" transform="translate(128 133)" fill="rgba(120,132,158,0.29)"/>
      </g>
      <g transform="translate(-128 -97)">
        <rect id="round-5" data-name="round" width="3" height="3" rx="1.5" transform="translate(128 133)" fill="rgba(120,132,158,0.29)"/>
      </g>
      <g transform="translate(-128 -88)">
        <rect id="round-6" data-name="round" width="3" height="3" rx="1.5" transform="translate(128 133)" fill="rgba(120,132,158,0.29)"/>
      </g>
      <g transform="translate(-128 -79)">
        <rect id="round-7" data-name="round" width="3" height="3" rx="1.5" transform="translate(128 133)" fill="rgba(120,132,158,0.29)"/>
      </g>
      <g transform="translate(-128 -70)">
        <rect id="round-8" data-name="round" width="3" height="3" rx="1.5" transform="translate(128 133)" fill="rgba(120,132,158,0.29)"/>
      </g>
      <g transform="translate(-128 -61)">
        <rect id="round-9" data-name="round" width="3" height="3" rx="1.5" transform="translate(128 133)" fill="rgba(120,132,158,0.29)"/>
      </g>
      <g transform="translate(-128 -52)">
        <rect id="round-10" data-name="round" width="3" height="3" rx="1.5" transform="translate(128 133)" fill="rgba(120,132,158,0.29)"/>
      </g>
      <g transform="translate(-128 -43)">
        <rect id="round-11" data-name="round" width="3" height="3" rx="1.5" transform="translate(128 133)" fill="rgba(120,132,158,0.29)"/>
      </g>
      <g transform="translate(-128 -34)">
        <rect id="round-12" data-name="round" width="3" height="3" rx="1.5" transform="translate(128 133)" fill="rgba(120,132,158,0.29)"/>
      </g>
      <g transform="translate(-128 -25)">
        <rect id="round-13" data-name="round" width="3" height="3" rx="1.5" transform="translate(128 133)" fill="rgba(120,132,158,0.29)"/>
      </g>
      <g transform="translate(-128 -16)">
        <rect id="round-14" data-name="round" width="3" height="3" rx="1.5" transform="translate(128 133)" fill="rgba(120,132,158,0.29)"/>
      </g>
      <g transform="translate(-128 -7)">
        <rect id="round-15" data-name="round" width="3" height="3" rx="1.5" transform="translate(128 133)" fill="rgba(120,132,158,0.29)"/>
      </g>
      <g transform="translate(-128 2)">
        <rect id="round-16" data-name="round" width="3" height="3" rx="1.5" transform="translate(128 133)" fill="rgba(120,132,158,0.29)"/>
      </g>
      <g transform="translate(-128 11)">
        <rect id="round-17" data-name="round" width="3" height="3" rx="1.5" transform="translate(128 133)" fill="rgba(120,132,158,0.29)"/>
      </g>
      <g transform="translate(-128 20)">
        <rect id="round-18" data-name="round" width="3" height="3" rx="1.5" transform="translate(128 133)" fill="rgba(120,132,158,0.29)"/>
      </g>
      <g transform="translate(-128 29)">
        <rect id="round-19" data-name="round" width="3" height="3" rx="1.5" transform="translate(128 133)" fill="rgba(120,132,158,0.29)"/>
      </g>
      <g transform="translate(-128 38)">
        <rect id="round-20" data-name="round" width="3" height="3" rx="1.5" transform="translate(128 133)" fill="rgba(120,132,158,0.29)"/>
      </g>
      <g transform="translate(-128 47)">
        <rect id="round-21" data-name="round" width="3" height="3" rx="1.5" transform="translate(128 133)" fill="rgba(120,132,158,0.29)"/>
      </g>
      <g transform="translate(-128 56)">
        <rect id="round-22" data-name="round" width="3" height="3" rx="1.5" transform="translate(128 133)" fill="rgba(120,132,158,0.29)"/>
      </g>
      <g transform="translate(-128 65)">
        <rect id="round-23" data-name="round" width="3" height="3" rx="1.5" transform="translate(128 133)" fill="rgba(120,132,158,0.29)"/>
      </g>
      <g transform="translate(-128 74)">
        <rect id="round-24" data-name="round" width="3" height="3" rx="1.5" transform="translate(128 133)" fill="rgba(120,132,158,0.29)"/>
      </g>
      <g transform="translate(-128 83)">
        <rect id="round-25" data-name="round" width="3" height="3" rx="1.5" transform="translate(128 133)" fill="rgba(120,132,158,0.29)"/>
      </g>
      <g transform="translate(-128 92)">
        <rect id="round-26" data-name="round" width="3" height="3" rx="1.5" transform="translate(128 133)" fill="rgba(120,132,158,0.29)"/>
      </g>
      <g transform="translate(-128 101)">
        <rect id="round-27" data-name="round" width="3" height="3" rx="1.5" transform="translate(128 133)" fill="rgba(120,132,158,0.29)"/>
      </g>
      <g transform="translate(-128 110)">
        <rect id="round-28" data-name="round" width="3" height="3" rx="1.5" transform="translate(128 133)" fill="rgba(120,132,158,0.29)"/>
      </g>
      <g transform="translate(-128 119)">
        <rect id="round-29" data-name="round" width="3" height="3" rx="1.5" transform="translate(128 133)" fill="rgba(120,132,158,0.29)"/>
      </g>
      <g transform="translate(-128 128)">
        <rect id="round-30" data-name="round" width="3" height="3" rx="1.5" transform="translate(128 133)" fill="rgba(120,132,158,0.29)"/>
      </g>
      <g transform="translate(-128 137)">
        <rect id="round-31" data-name="round" width="3" height="3" rx="1.5" transform="translate(128 133)" fill="rgba(120,132,158,0.29)"/>
      </g>
      <g transform="translate(-128 146)">
        <rect id="round-32" data-name="round" width="3" height="3" rx="1.5" transform="translate(128 133)" fill="rgba(120,132,158,0.29)"/>
      </g>
      <g transform="translate(-128 155)">
        <rect id="round-33" data-name="round" width="3" height="3" rx="1.5" transform="translate(128 133)" fill="rgba(120,132,158,0.29)"/>
      </g>
      <g transform="translate(-128 164)">
        <rect id="round-34" data-name="round" width="3" height="3" rx="1.5" transform="translate(128 133)" fill="rgba(120,132,158,0.29)"/>
      </g>
    </g>
    <rect id="pin" width="8" height="8" rx="4" transform="translate(488 868) rotate(-90)" fill="#00a3a1"/>
    <rect id="pin-2" data-name="pin" width="8" height="8" rx="4" transform="translate(806.75 868) rotate(-90)" fill="#005eb8"/>
  </g>
</svg>
