<svg id="ic_helpcenterbo" xmlns="http://www.w3.org/2000/svg" width="40" height="40" viewBox="0 0 40 40">
  <g id="noun_customer_support_1675694" data-name="noun_customer support_1675694" transform="translate(-4 2.018)">
    <path id="Trazado_83886" data-name="Trazado 83886" d="M30.463,42.406h-5.1L23.559,40.6l-1.806,1.806h-5.1A2.629,2.629,0,0,0,14,45.061v4.248a2.629,2.629,0,0,0,2.655,2.655H30.463a2.629,2.629,0,0,0,2.655-2.655V45.061A2.629,2.629,0,0,0,30.463,42.406ZM19.311,48.247a1.062,1.062,0,1,1,1.062-1.062A1.065,1.065,0,0,1,19.311,48.247Zm4.248,0a1.062,1.062,0,1,1,1.062-1.062A1.065,1.065,0,0,1,23.559,48.247Zm4.248,0a1.062,1.062,0,1,1,1.062-1.062A1.065,1.065,0,0,1,27.807,48.247Z" transform="translate(0 -18.11)" fill="#00338d"/>
    <path id="Trazado_83887" data-name="Trazado 83887" d="M25.063,1.992A7.615,7.615,0,0,0,18,9.639v4.567A1.565,1.565,0,0,0,19.593,15.8h1.062a1.565,1.565,0,0,0,1.593-1.593V11.02a1.565,1.565,0,0,0-1.593-1.593H19.062a6.373,6.373,0,0,1,12.745,0H30.214a1.565,1.565,0,0,0-1.593,1.593v3.186A1.565,1.565,0,0,0,30.214,15.8h1.593a4.261,4.261,0,0,1-4.248,4.248v-.531a1.565,1.565,0,0,0-1.593-1.593H24.957A1.594,1.594,0,1,0,24.9,21.11h2.655A5.326,5.326,0,0,0,32.869,15.8V9.426A7.444,7.444,0,0,0,25.063,1.992Z" transform="translate(-1.876 0)" fill="#00338d"/>
  </g>
  <rect id="Rectángulo_9077" data-name="Rectángulo 9077" width="40" height="40" fill="none"/>
</svg>
