<svg id="ic_m_logout" xmlns="http://www.w3.org/2000/svg" width="40" height="40" viewBox="0 0 40 40">
  <rect id="Rectángulo_8770" data-name="Rectángulo 8770" width="40" height="40" fill="none"/>
  <g id="noun_logout_3042555" transform="translate(-12.282 -13.958)">
    <g id="Grupo_11511" data-name="Grupo 11511" transform="translate(17.282 18.958)">
      <path id="Trazado_82296" data-name="Trazado 82296" d="M31.85,48.094a14.568,14.568,0,1,1,5.7-27.981.912.912,0,1,1-.714,1.678,12.744,12.744,0,1,0,0,23.469.912.912,0,1,1,.713,1.678A14.47,14.47,0,0,1,31.85,48.094Z" transform="translate(-17.282 -18.958)" fill="#00338d" stroke="#00338d" stroke-width="1"/>
    </g>
    <g id="Grupo_11512" data-name="Grupo 11512" transform="translate(30.154 32.51)">
      <path id="Trazado_82297" data-name="Trazado 82297" d="M59.785,50.265H45.925a1.216,1.216,0,1,1,0-2.431h13.86a1.216,1.216,0,1,1,0,2.431Z" transform="translate(-44.709 -47.834)" fill="#00338d" stroke="#00338d" stroke-width="1"/>
    </g>
    <g id="Grupo_11513" data-name="Grupo 11513" transform="translate(39.209 25.013)">
      <path id="Trazado_82298" data-name="Trazado 82298" d="M65.218,48.886a1.216,1.216,0,0,1-.928-2l5.349-6.334-5.37-6.716a1.216,1.216,0,0,1,1.9-1.519l6.617,8.277-6.638,7.861A1.212,1.212,0,0,1,65.218,48.886Z" transform="translate(-64.003 -31.859)" fill="#00338d" stroke="#00338d" stroke-width="1"/>
    </g>
  </g>
</svg>
