<svg xmlns="http://www.w3.org/2000/svg" xmlns:xlink="http://www.w3.org/1999/xlink" width="74" height="74" viewBox="0 0 74 74">
  <defs>
    <filter id="Elipse_6335" x="0" y="0" width="74" height="74" filterUnits="userSpaceOnUse">
      <feOffset dy="4" input="SourceAlpha"/>
      <feGaussianBlur stdDeviation="4" result="blur"/>
      <feFlood flood-opacity="0.251"/>
      <feComposite operator="in" in2="blur"/>
      <feComposite in="SourceGraphic"/>
    </filter>
  </defs>
  <g id="Grupo_15729" data-name="Grupo 15729" transform="translate(-1810 -17)">
    <g transform="matrix(1, 0, 0, 1, 1810, 17)" filter="url(#Elipse_6335)">
      <circle id="Elipse_6335-2" data-name="Elipse 6335" cx="25" cy="25" r="25" transform="translate(12 8)" fill="#0a7fba"/>
    </g>
    <g id="ic_m_notification" transform="translate(1827 30)">
      <rect id="Rectángulo_8768" data-name="Rectángulo 8768" width="40" height="40" fill="none"/>
      <g id="noun_notification_2377377" transform="translate(3.999 4)">
        <g id="Grupo_11509" data-name="Grupo 11509" transform="translate(4.001 3)">
          <path id="Trazado_82294" data-name="Trazado 82294" d="M27.7,22.287a11.112,11.112,0,0,1-3.367-7.978V12.2A8.255,8.255,0,0,0,17,4.065V4a1,1,0,0,0-2,0v.065A8.255,8.255,0,0,0,7.667,12.2v2.109A11.112,11.112,0,0,1,4.3,22.287,1,1,0,0,0,5,24H27a1,1,0,0,0,.7-1.713Z" transform="translate(-4.001 -3)" fill="#fff"/>
          <path id="Trazado_82295" data-name="Trazado 82295" d="M16,27.926a3.576,3.576,0,0,1-2.535-1.047l-.172-.173A1,1,0,0,1,14,25h4a1,1,0,0,1,.708,1.706l-.171.171A3.577,3.577,0,0,1,16,27.926Z" transform="translate(-4.001 -3)" fill="#fff"/>
        </g>
      </g>
    </g>
  </g>
</svg>
