<svg id="Ic_adminuserbo" xmlns="http://www.w3.org/2000/svg" width="40" height="40" viewBox="0 0 40 40">
  <g id="noun_admin_371299" transform="translate(2.262 2.4)">
    <path id="Trazado_83875" data-name="Trazado 83875" d="M23.876,7.863V11.47h-.032a6.049,6.049,0,0,0-1.527.292,8.019,8.019,0,0,0-1.592.78,7.2,7.2,0,0,0-1.43,1.2,7.825,7.825,0,0,0-.942,1.17h-5.1V5.329A17.181,17.181,0,0,1,5.194,8.513v6.433h8.057v9.26a5.39,5.39,0,0,1,.52-.195c.552-.26,1.1-.52,1.657-.747a13.766,13.766,0,0,0,1.917-1.2,5.9,5.9,0,0,0,.845,1.819,4.115,4.115,0,0,0,.195.585l-.292.195c-.325.195-.65.39-1.007.617a3.247,3.247,0,0,1-.455.26,11.4,11.4,0,0,1-1.819.845l-.747.292a1.694,1.694,0,0,1-.747.162,4.813,4.813,0,0,1-.617-.1,18.618,18.618,0,0,1-6.985-4.289,9.8,9.8,0,0,1-2.762-4.776,6.922,6.922,0,0,1-.195-2.112V7.928A1.723,1.723,0,0,1,4.512,6.044a15.046,15.046,0,0,0,7.635-2.989,2.024,2.024,0,0,1,1.17-.455,1.942,1.942,0,0,1,1.2.52,15.669,15.669,0,0,0,5.718,2.7c.52.1,1.072.195,1.624.26l.39.065A1.629,1.629,0,0,1,23.876,7.863ZM27.418,15.5a2.787,2.787,0,0,0-1.1-1.04,3.764,3.764,0,0,0-2.274-.487,2.819,2.819,0,0,0-.91.162h0a4.237,4.237,0,0,0-1.007.52,4.968,4.968,0,0,0-1.007.845,4.106,4.106,0,0,0-1.1,1.949,3.741,3.741,0,0,0,.1,2.144c-.357-.032-.78.162-.39,1.592.292,1.04.552,1.332.78,1.332a5.923,5.923,0,0,0,.617,1.852v1.365a.179.179,0,0,1-.1.162,30.861,30.861,0,0,0-4.906,3.054,3.126,3.126,0,0,0-1.2,2.437v1.43a.582.582,0,0,0,.585.585h17.35a.582.582,0,0,0,.585-.585v-1.43a3.031,3.031,0,0,0-1.2-2.437A29.664,29.664,0,0,0,27.353,25.9a.179.179,0,0,1-.1-.162v-1.56a5.392,5.392,0,0,0,.455-1.462c.195.13.552.065.942-1.3.325-1.1.13-1.495-.162-1.56C29.4,15.628,27.418,15.5,27.418,15.5Z" fill="#00338d"/>
  </g>
  <rect id="Rectángulo_9073" data-name="Rectángulo 9073" width="40" height="40" fill="none"/>
</svg>
