<svg xmlns="http://www.w3.org/2000/svg" xmlns:xlink="http://www.w3.org/1999/xlink" width="61" height="61" viewBox="0 0 61 61">
  <defs>
    <clipPath id="clip-path">
      <circle id="Elipse_6384" data-name="Elipse 6384" cx="30.5" cy="30.5" r="30.5" transform="translate(0.184)" fill="#0691da"/>
    </clipPath>
  </defs>
  <g id="Grupo_15734" data-name="Grupo 15734" transform="translate(-1385 -251)">
    <g id="Grupo_15733" data-name="Grupo 15733">
      <g id="Enmascarar_grupo_46" data-name="Enmascarar grupo 46" transform="translate(1384.816 251)" clip-path="url(#clip-path)">
        <path id="Trazado_84295" data-name="Trazado 84295" d="M30.5,0A30.5,30.5,0,1,1,0,30.5,30.5,30.5,0,0,1,30.5,0Z" fill="#009a44"/>
        <path id="Trazado_84291" data-name="Trazado 84291" d="M-568.418-118.985a3.354,3.354,0,0,0-.852-1.275l0-.008h0a3.359,3.359,0,0,0-2.293-.911h-3.22v-.945a2.029,2.029,0,0,0-2.029-2.03,2.03,2.03,0,0,0-2.029,2.03v.945H-590.19v-.945a2.029,2.029,0,0,0-2.029-2.03,2.03,2.03,0,0,0-2.029,2.03v.969a.66.66,0,0,0-.18-.024h-2.688a3.38,3.38,0,0,0-3.378,3.376v15.073a5.526,5.526,0,0,0-.374,7.582,5.693,5.693,0,0,0,.592.591H-602.1a.676.676,0,0,0-.675.671v1.755a2.554,2.554,0,0,0,.871,1.912l0,.006,14.417,16.484h35.841V-93.879Z" transform="translate(612.152 137.229)" fill="#00338d" opacity="0.2"/>
        <g id="Grupo_15672" data-name="Grupo 15672" transform="translate(9.375 13.077)">
          <g id="Grupo_11690" data-name="Grupo 11690" transform="translate(0 0)">
            <g id="Grupo_11689" data-name="Grupo 11689">
              <path id="Trazado_82461" data-name="Trazado 82461" d="M-604.739-120.365h-3.219v-.945a2.028,2.028,0,0,0-2.029-2.029,2.028,2.028,0,0,0-2.029,2.029v.945H-623.36v-.945a2.028,2.028,0,0,0-2.029-2.029,2.028,2.028,0,0,0-2.029,2.029v.97a.664.664,0,0,0-.18-.025h-2.688a3.38,3.38,0,0,0-3.378,3.377v11.507a.675.675,0,0,0,.676.675.676.676,0,0,0,.676-.675h0v-7.926h24.353a.676.676,0,0,0,.675-.675.675.675,0,0,0-.675-.676h-24.353v-2.229a2.028,2.028,0,0,1,2.026-2.026h2.692a.669.669,0,0,0,.18-.025v.87a2.028,2.028,0,0,0,2.029,2.029,2.028,2.028,0,0,0,2.029-2.029v-.844h11.344v.844a2.028,2.028,0,0,0,2.029,2.029,2.028,2.028,0,0,0,2.029-2.029v-.844h3.22a2.028,2.028,0,0,1,2.022,2.026v25.671a1.217,1.217,0,0,1-1.216,1.216,1.216,1.216,0,0,1-1.216-1.216v-1.755a.676.676,0,0,0-.676-.675h-7.858a.676.676,0,0,0-.675.675.676.676,0,0,0,.675.676h7.182v1.079a2.559,2.559,0,0,0,.307,1.216h-27.19a1.218,1.218,0,0,1-1.216-1.216v-1.075h15.12a.676.676,0,0,0,.676-.675.676.676,0,0,0-.676-.675h-6.75a5.539,5.539,0,0,0,.592-7.811,5.539,5.539,0,0,0-7.811-.592,5.539,5.539,0,0,0-.592,7.811,5.6,5.6,0,0,0,.592.592h-1.827a.675.675,0,0,0-.676.671v1.755a2.569,2.569,0,0,0,2.567,2.567h29.453a2.571,2.571,0,0,0,2.565-2.567v-25.671A3.38,3.38,0,0,0-604.739-120.365Zm-19.972,2.193a.676.676,0,0,1-.675.675.676.676,0,0,1-.675-.675v-3.138a.676.676,0,0,1,.675-.675.676.676,0,0,1,.675.675Zm15.4,0a.676.676,0,0,1-.676.675.676.676,0,0,1-.676-.675v-3.138a.676.676,0,0,1,.676-.675.676.676,0,0,1,.676.675Zm-24.714,20.234a4.188,4.188,0,0,1,4.188-4.188,4.188,4.188,0,0,1,4.188,4.188,4.188,4.188,0,0,1-4.188,4.188A4.194,4.194,0,0,1-634.024-97.938Z" transform="translate(635.947 123.339)" fill="#fff"/>
            </g>
          </g>
          <g id="Grupo_11692" data-name="Grupo 11692" transform="translate(30.481 8.581)">
            <g id="Grupo_11691" data-name="Grupo 11691">
              <path id="Trazado_82462" data-name="Trazado 82462" d="M-607-115.317a.675.675,0,0,0-.955,0,.676.676,0,0,0,0,.955.675.675,0,0,0,.955,0,.677.677,0,0,0,.2-.477A.682.682,0,0,0-607-115.317Z" transform="translate(608.151 115.514)" fill="#fff"/>
            </g>
          </g>
          <g id="Grupo_11694" data-name="Grupo 11694" transform="translate(19.021 29.598)">
            <g id="Grupo_11693" data-name="Grupo 11693">
              <path id="Trazado_82463" data-name="Trazado 82463" d="M-617.45-96.151a.676.676,0,0,0-.955,0,.675.675,0,0,0,0,.955.675.675,0,0,0,.955,0,.676.676,0,0,0,.2-.478A.681.681,0,0,0-617.45-96.151Z" transform="translate(618.602 96.348)" fill="#fff"/>
            </g>
          </g>
          <g id="Grupo_11696" data-name="Grupo 11696" transform="translate(12.716 20.537)">
            <g id="Grupo_11695" data-name="Grupo 11695">
              <path id="Trazado_82464" data-name="Trazado 82464" d="M-621.784-104.611a2.567,2.567,0,0,0-2.567,2.567,2.567,2.567,0,0,0,2.567,2.567,2.567,2.567,0,0,0,2.567-2.567A2.569,2.569,0,0,0-621.784-104.611Zm0,3.783A1.216,1.216,0,0,1-623-102.044a1.215,1.215,0,0,1,1.216-1.216,1.216,1.216,0,0,1,1.216,1.216A1.218,1.218,0,0,1-621.784-100.828Z" transform="translate(624.351 104.611)" fill="#fff"/>
            </g>
          </g>
          <g id="Grupo_11698" data-name="Grupo 11698" transform="translate(19.02 20.537)">
            <g id="Grupo_11697" data-name="Grupo 11697">
              <path id="Trazado_82465" data-name="Trazado 82465" d="M-616.035-104.611a2.567,2.567,0,0,0-2.567,2.567,2.567,2.567,0,0,0,2.567,2.567,2.567,2.567,0,0,0,2.567-2.567A2.569,2.569,0,0,0-616.035-104.611Zm0,3.783a1.216,1.216,0,0,1-1.216-1.216,1.215,1.215,0,0,1,1.216-1.216,1.216,1.216,0,0,1,1.216,1.216A1.218,1.218,0,0,1-616.035-100.828Z" transform="translate(618.602 104.611)" fill="#fff"/>
            </g>
          </g>
          <g id="Grupo_11700" data-name="Grupo 11700" transform="translate(25.325 20.537)">
            <g id="Grupo_11699" data-name="Grupo 11699">
              <path id="Trazado_82466" data-name="Trazado 82466" d="M-610.286-104.611a2.567,2.567,0,0,0-2.567,2.567,2.567,2.567,0,0,0,2.567,2.567,2.567,2.567,0,0,0,2.567-2.567A2.569,2.569,0,0,0-610.286-104.611Zm0,3.783a1.216,1.216,0,0,1-1.216-1.216,1.215,1.215,0,0,1,1.216-1.216,1.216,1.216,0,0,1,1.216,1.216A1.218,1.218,0,0,1-610.286-100.828Z" transform="translate(612.853 104.611)" fill="#fff"/>
            </g>
          </g>
          <g id="Grupo_11702" data-name="Grupo 11702" transform="translate(6.412 13.512)">
            <g id="Grupo_11701" data-name="Grupo 11701">
              <path id="Trazado_82467" data-name="Trazado 82467" d="M-627.533-111.017a2.567,2.567,0,0,0-2.567,2.567,2.567,2.567,0,0,0,2.567,2.567,2.567,2.567,0,0,0,2.567-2.567A2.569,2.569,0,0,0-627.533-111.017Zm0,3.783a1.216,1.216,0,0,1-1.216-1.216,1.215,1.215,0,0,1,1.216-1.216,1.216,1.216,0,0,1,1.216,1.216h0A1.218,1.218,0,0,1-627.533-107.234Z" transform="translate(630.1 111.017)" fill="#fff"/>
            </g>
          </g>
          <g id="Grupo_11704" data-name="Grupo 11704" transform="translate(19.02 13.512)">
            <g id="Grupo_11703" data-name="Grupo 11703">
              <path id="Trazado_82468" data-name="Trazado 82468" d="M-616.035-111.017a2.567,2.567,0,0,0-2.567,2.567,2.567,2.567,0,0,0,2.567,2.567,2.567,2.567,0,0,0,2.567-2.567A2.569,2.569,0,0,0-616.035-111.017Zm0,3.783a1.216,1.216,0,0,1-1.216-1.216,1.215,1.215,0,0,1,1.216-1.216,1.216,1.216,0,0,1,1.216,1.216A1.218,1.218,0,0,1-616.035-107.234Z" transform="translate(618.602 111.017)" fill="#fff"/>
            </g>
          </g>
          <g id="Grupo_11706" data-name="Grupo 11706" transform="translate(25.325 13.512)">
            <g id="Grupo_11705" data-name="Grupo 11705">
              <path id="Trazado_82469" data-name="Trazado 82469" d="M-610.286-111.017a2.567,2.567,0,0,0-2.567,2.567,2.567,2.567,0,0,0,2.567,2.567,2.567,2.567,0,0,0,2.567-2.567A2.569,2.569,0,0,0-610.286-111.017Zm0,3.783a1.216,1.216,0,0,1-1.216-1.216,1.215,1.215,0,0,1,1.216-1.216,1.216,1.216,0,0,1,1.216,1.216A1.218,1.218,0,0,1-610.286-107.234Z" transform="translate(612.853 111.017)" fill="#fff"/>
            </g>
          </g>
          <g id="Grupo_11708" data-name="Grupo 11708" transform="translate(12.716 13.512)">
            <g id="Grupo_11707" data-name="Grupo 11707">
              <path id="Trazado_82470" data-name="Trazado 82470" d="M-621.784-111.017a2.567,2.567,0,0,0-2.567,2.567,2.567,2.567,0,0,0,2.567,2.567,2.567,2.567,0,0,0,2.567-2.567A2.569,2.569,0,0,0-621.784-111.017Zm0,3.783A1.216,1.216,0,0,1-623-108.45a1.215,1.215,0,0,1,1.216-1.216,1.216,1.216,0,0,1,1.216,1.216h0A1.218,1.218,0,0,1-621.784-107.234Z" transform="translate(624.351 111.017)" fill="#fff"/>
            </g>
          </g>
          <g id="Grupo_11710" data-name="Grupo 11710" transform="translate(3.468 23.557)">
            <g id="Grupo_11709" data-name="Grupo 11709">
              <path id="Trazado_82471" data-name="Trazado 82471" d="M-627.733-101.659a.674.674,0,0,0-.955,0l-2.2,2.2-.752-.752a.676.676,0,0,0-.955.018.676.676,0,0,0,0,.938l1.229,1.229a.677.677,0,0,0,.955,0l2.678-2.678A.675.675,0,0,0-627.733-101.659Z" transform="translate(632.785 101.857)" fill="#fff"/>
            </g>
          </g>
        </g>
        <g id="Grupo_15673" data-name="Grupo 15673" transform="translate(11.568 15.065)" opacity="0.15">
          <path id="Trazado_84292" data-name="Trazado 84292" d="M-637.91-120.365h-3.22v-.945a2.028,2.028,0,0,0-2.028-2.029,2.028,2.028,0,0,0-2.028,2.029v.945h-11.345v-.945a2.028,2.028,0,0,0-2.029-2.029,2.029,2.029,0,0,0-2.029,2.029v.97a.658.658,0,0,0-.18-.025h-2.688a3.38,3.38,0,0,0-3.377,3.377v15.072a5.524,5.524,0,0,0-.373,7.582,5.6,5.6,0,0,0,.591.592h-1.827a.675.675,0,0,0-.674.671v1.755a2.569,2.569,0,0,0,2.567,2.567H-637.1a2.572,2.572,0,0,0,2.566-2.567v-25.671A3.381,3.381,0,0,0-637.91-120.365Z" transform="translate(669.117 123.339)" fill="#fff"/>
        </g>
      </g>
    </g>
    <g id="Grupo_15677" data-name="Grupo 15677" transform="translate(1391.337 282)">
      <g id="Elipse_6387" data-name="Elipse 6387" transform="matrix(0.995, 0.105, -0.105, 0.995, 2.371, 1.371)" fill="#fff" stroke="#707070" stroke-width="1">
        <ellipse cx="5.854" cy="5.217" rx="5.854" ry="5.217" stroke="none"/>
        <ellipse cx="5.854" cy="5.217" rx="5.354" ry="4.717" fill="none"/>
      </g>
      <g id="noun_Check_2729254">
        <path id="Trazado_84195" data-name="Trazado 84195" d="M14.495,8a7.133,7.133,0,1,0,5.678,2.061A7.112,7.112,0,0,0,14.495,8Zm4.476,5.485-4.215,4.171a.677.677,0,0,1-.945,0l-2.484-2.372a.678.678,0,0,1,.94-.979l2,1.924,3.753-3.707a.677.677,0,0,1,.952.964Z" transform="translate(-8.039 -7.973)" fill="#008552"/>
      </g>
    </g>
  </g>
</svg>
