<svg xmlns="http://www.w3.org/2000/svg" width="241" height="213.008" viewBox="0 0 241 213.008">
  <g id="Grupo_15696" data-name="Grupo 15696" transform="translate(-1039 -306.144)">
    <ellipse id="Elipse_6355" data-name="Elipse 6355" cx="102.163" cy="102.164" rx="102.163" ry="102.164" transform="translate(1057.386 306.144)" fill="#ecedf0"/>
    <ellipse id="Elipse_6356" data-name="Elipse 6356" cx="120.5" cy="13.098" rx="120.5" ry="13.098" transform="translate(1039 492.956)" fill="#a0abbe"/>
    <path id="Trazado_84343" data-name="Trazado 84343" d="M-18794.6,1398.519l-18.008-21.84,1.943-16.358,7.988-7.335,12.092-2.766,5.791,2.766,8.6,3.4v5.706l1.846,3s1.381,6.439,0,11.593-20.248,21.84-20.248,21.84" transform="translate(20009 -1016)" fill="#fff"/>
    <rect id="Rectángulo_9363" data-name="Rectángulo 9363" width="94" height="159" transform="translate(1084 328)" fill="#fff"/>
    <rect id="Rectángulo_9365" data-name="Rectángulo 9365" width="173" height="11" transform="translate(1072 490)" fill="#c8c5c9"/>
    <rect id="Rectángulo_9366" data-name="Rectángulo 9366" width="141" height="6" rx="3" transform="translate(1104 490)" fill="#dad8db"/>
    <rect id="Rectángulo_9364" data-name="Rectángulo 9364" width="90" height="88" transform="translate(1142 402)" fill="#fff"/>
    <g id="office-building" transform="translate(1067 323.917)">
      <g id="Grupo_15690" data-name="Grupo 15690" transform="translate(0 0.083)">
        <path id="Trazado_84321" data-name="Trazado 84321" d="M172.525,163.073h-2.666V81.095a6.766,6.766,0,0,0-6.759-6.758H114.724V9.128A9.055,9.055,0,0,0,105.679.083H21.187a9.055,9.055,0,0,0-9.045,9.045V163.073H9.476a9.476,9.476,0,0,0,0,18.951H172.525a9.476,9.476,0,0,0,0-18.951ZM17.474,9.128a3.717,3.717,0,0,1,3.713-3.713h84.492a3.717,3.717,0,0,1,3.713,3.713V74.337H86.634a6.766,6.766,0,0,0-6.759,6.758v61.312a2.666,2.666,0,0,0,5.332,0V81.095a1.428,1.428,0,0,1,1.427-1.426H163.1a1.428,1.428,0,0,1,1.426,1.426v81.978H85.208v-8.2a2.666,2.666,0,0,0-5.332,0v8.2h-62.4ZM172.525,176.692H9.475a4.144,4.144,0,0,1,0-8.287H172.525a4.144,4.144,0,0,1,0,8.287Z" transform="translate(0 -0.083)" fill="#acacac"/>
        <path id="Trazado_84322" data-name="Trazado 84322" d="M87.917,45.787H76.979A5.289,5.289,0,0,0,71.7,51.07V62.008a5.289,5.289,0,0,0,5.283,5.283H87.917A5.289,5.289,0,0,0,93.2,62.008V51.07a5.289,5.289,0,0,0-5.283-5.283Zm-.049,16.172H77.028V51.119h10.84Z" transform="translate(-46.21 -29.541)" fill="#acacac"/>
        <path id="Trazado_84323" data-name="Trazado 84323" d="M164.423,45.787H153.485A5.289,5.289,0,0,0,148.2,51.07V62.008a5.289,5.289,0,0,0,5.283,5.283h10.938a5.289,5.289,0,0,0,5.283-5.283V51.07A5.289,5.289,0,0,0,164.423,45.787Zm-.049,16.172h-10.84V51.119h10.84Z" transform="translate(-95.521 -29.541)" fill="#acacac"/>
        <path id="Trazado_84324" data-name="Trazado 84324" d="M229.988,67.291h10.938a5.289,5.289,0,0,0,5.283-5.283V51.07a5.289,5.289,0,0,0-5.283-5.283H229.988A5.289,5.289,0,0,0,224.7,51.07V62.008a5.289,5.289,0,0,0,5.283,5.283Zm.049-16.172h10.841v10.84H230.037Z" transform="translate(-144.829 -29.541)" fill="#acacac"/>
        <path id="Trazado_84325" data-name="Trazado 84325" d="M87.917,139.412H76.979a5.289,5.289,0,0,0-5.283,5.283v10.938a5.289,5.289,0,0,0,5.283,5.283H87.917a5.289,5.289,0,0,0,5.283-5.283V144.695a5.289,5.289,0,0,0-5.283-5.283Zm-.049,16.172H77.028v-10.84h10.84Z" transform="translate(-46.21 -89.885)" fill="#acacac"/>
        <path id="Trazado_84326" data-name="Trazado 84326" d="M164.423,139.412H153.485a5.289,5.289,0,0,0-5.283,5.283v10.938a5.289,5.289,0,0,0,5.283,5.283h10.938a5.289,5.289,0,0,0,5.283-5.283V144.695A5.289,5.289,0,0,0,164.423,139.412Zm-.049,16.172h-10.84v-10.84h10.84Z" transform="translate(-95.521 -89.885)" fill="#acacac"/>
        <path id="Trazado_84327" data-name="Trazado 84327" d="M229.988,160.917h10.938a5.289,5.289,0,0,0,5.283-5.283V144.7a5.289,5.289,0,0,0-5.283-5.283H229.988A5.289,5.289,0,0,0,224.7,144.7v10.938a5.289,5.289,0,0,0,5.283,5.283Zm.049-16.172h10.841v10.84H230.037Z" transform="translate(-144.829 -89.886)" fill="#acacac"/>
        <path id="Trazado_84328" data-name="Trazado 84328" d="M87.917,233.036H76.979a5.289,5.289,0,0,0-5.283,5.283v10.938a5.289,5.289,0,0,0,5.283,5.283H87.917a5.289,5.289,0,0,0,5.283-5.283V238.319a5.289,5.289,0,0,0-5.283-5.283Zm-.049,16.172H77.028v-10.84h10.84Z" transform="translate(-46.21 -150.228)" fill="#acacac"/>
        <path id="Trazado_84329" data-name="Trazado 84329" d="M164.423,233.036H153.485a5.289,5.289,0,0,0-5.283,5.283v10.938a5.289,5.289,0,0,0,5.283,5.283h10.938a5.289,5.289,0,0,0,5.283-5.283V238.319a5.289,5.289,0,0,0-5.283-5.283Zm-.049,16.172h-10.84v-10.84h10.84Z" transform="translate(-95.521 -150.228)" fill="#acacac"/>
        <path id="Trazado_84330" data-name="Trazado 84330" d="M87.917,326.661H76.979a5.289,5.289,0,0,0-5.283,5.283v10.938a5.289,5.289,0,0,0,5.283,5.283H87.917a5.289,5.289,0,0,0,5.283-5.283V331.944a5.289,5.289,0,0,0-5.283-5.283Zm-.049,16.172H77.028v-10.84h10.84Z" transform="translate(-46.21 -210.573)" fill="#acacac"/>
        <path id="Trazado_84331" data-name="Trazado 84331" d="M164.423,326.661H153.485a5.289,5.289,0,0,0-5.283,5.283v10.938a5.289,5.289,0,0,0,5.283,5.283h10.938a5.289,5.289,0,0,0,5.283-5.283V331.944A5.289,5.289,0,0,0,164.423,326.661Zm-.049,16.172h-10.84v-10.84h10.84Z" transform="translate(-95.521 -210.573)" fill="#acacac"/>
        <path id="Trazado_84332" data-name="Trazado 84332" d="M261.9,268.055h10.359a4.561,4.561,0,0,0,4.556-4.555V253.4a4.561,4.561,0,0,0-4.556-4.556H261.9a4.561,4.561,0,0,0-4.556,4.556v10.1A4.561,4.561,0,0,0,261.9,268.055Zm.776-13.875h8.806v8.543h-8.806Z" transform="translate(-165.866 -160.42)" fill="#acacac"/>
        <path id="Trazado_84333" data-name="Trazado 84333" d="M261.9,329.364h10.359a4.561,4.561,0,0,0,4.556-4.556v-10.1a4.561,4.561,0,0,0-4.556-4.556H261.9a4.561,4.561,0,0,0-4.556,4.556v10.1A4.561,4.561,0,0,0,261.9,329.364Zm.776-13.875h8.806v8.543h-8.806Z" transform="translate(-165.866 -199.935)" fill="#acacac"/>
        <path id="Trazado_84334" data-name="Trazado 84334" d="M261.9,390.673h10.359a4.561,4.561,0,0,0,4.556-4.556v-10.1a4.561,4.561,0,0,0-4.556-4.556H261.9a4.561,4.561,0,0,0-4.556,4.556v10.1A4.561,4.561,0,0,0,261.9,390.673Zm.776-13.875h8.806v8.543h-8.806Z" transform="translate(-165.866 -239.451)" fill="#acacac"/>
        <path id="Trazado_84335" data-name="Trazado 84335" d="M328.443,268.055H338.8a4.561,4.561,0,0,0,4.556-4.555V253.4a4.561,4.561,0,0,0-4.556-4.556H328.443a4.561,4.561,0,0,0-4.556,4.556v10.1A4.561,4.561,0,0,0,328.443,268.055Zm.776-13.875h8.806v8.543h-8.806Z" transform="translate(-208.755 -160.42)" fill="#acacac"/>
        <path id="Trazado_84336" data-name="Trazado 84336" d="M328.443,329.364H338.8a4.561,4.561,0,0,0,4.556-4.556v-10.1a4.561,4.561,0,0,0-4.556-4.556H328.443a4.561,4.561,0,0,0-4.556,4.556v10.1A4.561,4.561,0,0,0,328.443,329.364Zm.776-13.875h8.806v8.543h-8.806Z" transform="translate(-208.755 -199.935)" fill="#acacac"/>
        <path id="Trazado_84337" data-name="Trazado 84337" d="M328.443,390.673H338.8a4.561,4.561,0,0,0,4.556-4.556v-10.1a4.561,4.561,0,0,0-4.556-4.556H328.443a4.561,4.561,0,0,0-4.556,4.556v10.1A4.561,4.561,0,0,0,328.443,390.673Zm.776-13.875h8.806v8.543h-8.806Z" transform="translate(-208.755 -239.451)" fill="#acacac"/>
        <path id="Trazado_84338" data-name="Trazado 84338" d="M394.988,268.055h10.359A4.561,4.561,0,0,0,409.9,263.5V253.4a4.561,4.561,0,0,0-4.556-4.556H394.988a4.561,4.561,0,0,0-4.556,4.556v10.1A4.561,4.561,0,0,0,394.988,268.055Zm.776-13.875h8.806v8.543h-8.806Z" transform="translate(-251.646 -160.42)" fill="#acacac"/>
        <path id="Trazado_84339" data-name="Trazado 84339" d="M394.988,329.364h10.359a4.561,4.561,0,0,0,4.556-4.556v-10.1a4.561,4.561,0,0,0-4.556-4.556H394.988a4.561,4.561,0,0,0-4.556,4.556v10.1A4.561,4.561,0,0,0,394.988,329.364Zm.776-13.875h8.806v8.543h-8.806Z" transform="translate(-251.646 -199.935)" fill="#acacac"/>
        <path id="Trazado_84340" data-name="Trazado 84340" d="M394.988,390.673h10.359a4.561,4.561,0,0,0,4.556-4.556v-10.1a4.561,4.561,0,0,0-4.556-4.556H394.988a4.561,4.561,0,0,0-4.556,4.556v10.1A4.561,4.561,0,0,0,394.988,390.673Zm.776-13.875h8.806v8.543h-8.806Z" transform="translate(-251.646 -239.451)" fill="#acacac"/>
        <path id="Trazado_84341" data-name="Trazado 84341" d="M373.65,73.893a5.165,5.165,0,0,0,6.112,0c4.61-3.367,15.671-12.6,18.793-25.562a2.666,2.666,0,0,0-5.184-1.248c-2.759,11.458-13.335,19.994-16.665,22.44-4.189-3.076-17.342-13.876-17.342-28.048a17.345,17.345,0,0,1,33.82-5.423,2.666,2.666,0,0,0,5.065-1.666,22.677,22.677,0,0,0-44.217,7.088C354.032,58.261,369.048,70.532,373.65,73.893Z" transform="translate(-228.185 -12.147)" fill="#acacac"/>
        <path id="Trazado_84342" data-name="Trazado 84342" d="M394.953,47.112a12.611,12.611,0,1,0,12.611,12.611,12.625,12.625,0,0,0-12.611-12.611Zm0,19.889a7.279,7.279,0,1,1,7.279-7.279A7.287,7.287,0,0,1,394.953,67Z" transform="translate(-246.432 -30.395)" fill="#acacac"/>
      </g>
    </g>
    <rect id="Rectángulo_9367" data-name="Rectángulo 9367" width="58" height="3" rx="1.5" transform="translate(1154.5 403.5) rotate(90)" fill="#dad8db"/>
  </g>
</svg>
