<svg xmlns="http://www.w3.org/2000/svg" width="113.593" height="72.877" viewBox="0 0 113.593 72.877">
  <g id="Grupo_15803" data-name="Grupo 15803" transform="translate(-336.887 -225.814)">
    <g id="Grupo_15795" data-name="Grupo 15795" transform="translate(406.554 225.814)">
      <path id="Trazado_84397" data-name="Trazado 84397" d="M926.184,258.736a7.279,7.279,0,0,1-3.134-.622,5.824,5.824,0,0,1-2.153-1.7,7.312,7.312,0,0,1-1.244-2.464,10.493,10.493,0,0,1-.407-2.967V233.566a10.744,10.744,0,0,1,.407-2.991,7.036,7.036,0,0,1,1.244-2.464,5.947,5.947,0,0,1,2.153-1.675,7.28,7.28,0,0,1,3.134-.622,7.409,7.409,0,0,1,3.182.622,5.961,5.961,0,0,1,2.153,1.675,7.063,7.063,0,0,1,1.244,2.464,10.771,10.771,0,0,1,.407,2.991v17.418a10.519,10.519,0,0,1-.407,2.967,7.341,7.341,0,0,1-1.244,2.464,5.838,5.838,0,0,1-2.153,1.7A7.408,7.408,0,0,1,926.184,258.736Zm0-1.053a5.925,5.925,0,0,0,2.584-.526,4.637,4.637,0,0,0,1.77-1.436,6.433,6.433,0,0,0,1-2.105,9.2,9.2,0,0,0,.335-2.488v-17.7a9.129,9.129,0,0,0-.335-2.512,6.477,6.477,0,0,0-1-2.081,4.651,4.651,0,0,0-1.77-1.436,5.938,5.938,0,0,0-2.584-.526,5.778,5.778,0,0,0-2.56.526,4.689,4.689,0,0,0-1.747,1.436,6.457,6.457,0,0,0-1,2.081,9.106,9.106,0,0,0-.335,2.512v17.7a9.174,9.174,0,0,0,.335,2.488,6.414,6.414,0,0,0,1,2.105,4.674,4.674,0,0,0,1.747,1.436A5.766,5.766,0,0,0,926.184,257.683Z" transform="translate(-919.246 -225.814)" fill="#fff"/>
      <path id="Trazado_84398" data-name="Trazado 84398" d="M1070.716,276.436q0-5.168-4.5-5.168a5.137,5.137,0,0,0-3.4,1.244,4.8,4.8,0,0,0-1.579,3.685v21.389h-1.2V270.454h1.2v3.158h.048a5.913,5.913,0,0,1,1.843-2.393,5.358,5.358,0,0,1,3.421-1,5.238,5.238,0,0,1,3.948,1.459q1.411,1.461,1.412,4.713v21.2h-1.2Z" transform="translate(-1043.202 -264.903)" fill="#fff"/>
      <path id="Trazado_84399" data-name="Trazado 84399" d="M1194.882,288.973v2.38q0,6.473-6.077,6.473a6.142,6.142,0,0,1-4.689-1.771,7.025,7.025,0,0,1-1.675-5.024V276.914a6.979,6.979,0,0,1,1.627-4.976,7.047,7.047,0,0,1,9.212-.018,7,7,0,0,1,1.6,4.971v6.675h-11.246v7.581a5.955,5.955,0,0,0,1.34,4.148,4.9,4.9,0,0,0,3.828,1.478q4.882,0,4.881-5.327v-2.473Zm-11.246-6.46h10v-5.694a6.022,6.022,0,0,0-1.268-4.115,4.686,4.686,0,0,0-3.708-1.435,4.763,4.763,0,0,0-3.732,1.435,5.948,5.948,0,0,0-1.292,4.115Z" transform="translate(-1150.955 -264.903)" fill="#fff"/>
      <path id="Trazado_84400" data-name="Trazado 84400" d="M921.689,543.94v16.317h-1.244V527.814h1.244v15.7l10.144-15.7h1.34L922.934,543.6l10.288,16.652h-1.34Z" transform="translate(-920.301 -491.686)" fill="#fff"/>
      <path id="Trazado_84401" data-name="Trazado 84401" d="M1043.686,588.973v2.38q0,6.473-6.077,6.473a6.143,6.143,0,0,1-4.689-1.771,7.027,7.027,0,0,1-1.675-5.024V576.914a6.979,6.979,0,0,1,1.627-4.977,7.046,7.046,0,0,1,9.211-.018,7,7,0,0,1,1.6,4.971v6.675h-11.245v7.581a5.952,5.952,0,0,0,1.34,4.148,4.9,4.9,0,0,0,3.828,1.478q4.881,0,4.881-5.327v-2.473Zm-11.245-6.46h10v-5.694a6.024,6.024,0,0,0-1.268-4.115,4.687,4.687,0,0,0-3.708-1.436,4.763,4.763,0,0,0-3.732,1.436,5.951,5.951,0,0,0-1.292,4.115Z" transform="translate(-1017.847 -529.015)" fill="#fff"/>
      <path id="Trazado_84402" data-name="Trazado 84402" d="M1157.343,572.215l-6.891,27.849a9.74,9.74,0,0,1-.55,1.7,3.238,3.238,0,0,1-.766,1.1,2.829,2.829,0,0,1-1.125.6,6.226,6.226,0,0,1-1.675.191h-1.1V602.6h1.052a2.771,2.771,0,0,0,2.082-.641,5.01,5.01,0,0,0,.981-2.16l.813-3.229h-.383l-5.742-24.356h1.244l5.312,22.49h.047l5.5-22.49Z" transform="translate(-1117.149 -530.776)" fill="#fff"/>
    </g>
    <g id="Grupo_15802" data-name="Grupo 15802" transform="translate(336.887 229.063)">
      <g id="Grupo_15797" data-name="Grupo 15797" transform="translate(0 21.912)">
        <g id="Grupo_15796" data-name="Grupo 15796">
          <path id="Trazado_84403" data-name="Trazado 84403" d="M358.824,468.037l-.048-19.1-16.684-9.757a2.55,2.55,0,1,0-.856,1.464l15.847,9.268.046,18.135a2.55,2.55,0,1,0,1.7,0Z" transform="translate(-337.021 -436.144)" fill="#0091da"/>
          <path id="Trazado_84404" data-name="Trazado 84404" d="M349.622,542.155l.006-8.371-7.7-4.646a2.55,2.55,0,1,0-.876,1.451l6.875,4.152-.005,7.413a2.55,2.55,0,1,0,1.7,0Z" transform="translate(-336.887 -515.313)" fill="#005eb8"/>
        </g>
      </g>
      <path id="Trazado_84405" data-name="Trazado 84405" d="M397.271,345.911a2.548,2.548,0,0,0-4.714,1.739l-22.367,12.9a3.833,3.833,0,0,0-5.663,0l-22.367-12.9a2.55,2.55,0,1,0-.847,1.469l22.372,12.9a3.838,3.838,0,0,0,2.818,4.859l-.007,25.962a2.55,2.55,0,1,0,1.7,0l.007-25.96a3.838,3.838,0,0,0,2.832-4.862l22.372-12.9a2.549,2.549,0,0,0,3.867-3.208Zm-29.912,19.773a2.548,2.548,0,1,1,2.548-2.548A2.548,2.548,0,0,1,367.359,365.684Z" transform="translate(-337.079 -333.67)" fill="#fff"/>
      <g id="Grupo_15799" data-name="Grupo 15799" transform="translate(37.048 21.912)">
        <g id="Grupo_15798" data-name="Grupo 15798">
          <path id="Trazado_84406" data-name="Trazado 84406" d="M669.724,437.407a2.548,2.548,0,0,0-4.7,1.768l-16.684,9.757-.048,19.1a2.55,2.55,0,1,0,1.7,0l.046-18.135,15.847-9.268a2.548,2.548,0,0,0,3.846-3.232Z" transform="translate(-646.581 -436.144)" fill="#0091da"/>
          <path id="Trazado_84407" data-name="Trazado 84407" d="M736.515,527.3a2.548,2.548,0,0,0-4.678,1.834l-7.7,4.646.006,8.371a2.55,2.55,0,1,0,1.7,0l-.006-7.413,6.876-4.152a2.548,2.548,0,0,0,3.8-3.285Z" transform="translate(-713.372 -515.313)" fill="#005eb8"/>
        </g>
      </g>
      <g id="Grupo_15801" data-name="Grupo 15801" transform="translate(9.521 0)">
        <g id="Grupo_15800" data-name="Grupo 15800">
          <path id="Trazado_84408" data-name="Trazado 84408" d="M457.929,299.406a2.549,2.549,0,0,0-4.717,1.73l-15.728,9.028-15.95-9.09a2.55,2.55,0,1,0-.84,1.473l16.792,9.57,16.569-9.511a2.548,2.548,0,0,0,3.873-3.2Z" transform="translate(-416.477 -292.676)" fill="#0091da"/>
          <path id="Trazado_84409" data-name="Trazado 84409" d="M517.505,254.365a2.548,2.548,0,0,0-4.712,1.745l-6.418,3.711-7.033-3.879a2.55,2.55,0,1,0-.819,1.485l7.871,4.341,7.247-4.191a2.548,2.548,0,0,0,3.863-3.213Z" transform="translate(-484.972 -252.975)" fill="#005eb8"/>
        </g>
      </g>
    </g>
  </g>
</svg>
