<svg xmlns="http://www.w3.org/2000/svg" xmlns:xlink="http://www.w3.org/1999/xlink" width="603" height="638" viewBox="0 0 603 638">
  <defs>
    <clipPath id="clip-path">
      <path id="Rectángulo_8806" data-name="Rectángulo 8806" d="M15,0H603a0,0,0,0,1,0,0V638a0,0,0,0,1,0,0H15A15,15,0,0,1,0,623V15A15,15,0,0,1,15,0Z" fill="#0691da" stroke="#707070" stroke-width="1"/>
    </clipPath>
    <linearGradient id="linear-gradient" x1="0.183" y1="0.859" x2="0.581" y2="0.557" gradientUnits="objectBoundingBox">
      <stop offset="0" stop-color="#08539b"/>
      <stop offset="1" stop-color="#2293ff" stop-opacity="0.624"/>
    </linearGradient>
  </defs>
  <g id="Grupo_15804" data-name="Grupo 15804" transform="translate(-448 -221)">
    <g id="Enmascarar_grupo_6" data-name="Enmascarar grupo 6" transform="translate(448 221)" clip-path="url(#clip-path)">
      <g id="Trazado_83874" data-name="Trazado 83874" fill="#02338d">
        <path d="M 602.5 637.5 L 0.5 637.5 L 0.5 0.5 L 602.5 0.5 L 602.5 637.5 Z" stroke="none"/>
        <path d="M 1 1 L 1 637 L 602 637 L 602 1 L 1 1 M 0 0 L 603 0 L 603 638 L 0 638 L 0 0 Z" stroke="none" fill="#707070"/>
      </g>
      <ellipse id="Elipse_6271" data-name="Elipse 6271" cx="302" cy="301.5" rx="302" ry="301.5" transform="translate(243 -179)" opacity="0.234" fill="url(#linear-gradient)"/>
      <path id="Trazado_84319" data-name="Trazado 84319" d="M302,0C468.79,0,604,134.762,604,301S468.79,602,302,602,0,467.238,0,301,135.21,0,302,0Z" transform="translate(-135 216)" fill="#0691da" opacity="0.234"/>
    </g>
    <g id="Grupo_15803" data-name="Grupo 15803" transform="translate(227.73 195.848)">
      <g id="Grupo_15795" data-name="Grupo 15795" transform="translate(563.988 225.814)">
        <path id="Trazado_84397" data-name="Trazado 84397" d="M941.864,333.133a23.729,23.729,0,0,1-10.218-2.028,18.99,18.99,0,0,1-7.02-5.537,23.843,23.843,0,0,1-4.056-8.033,34.217,34.217,0,0,1-1.325-9.671V251.084a35.035,35.035,0,0,1,1.325-9.749,22.945,22.945,0,0,1,4.056-8.033,19.39,19.39,0,0,1,7.02-5.46,23.733,23.733,0,0,1,10.218-2.028,24.156,24.156,0,0,1,10.373,2.028,19.436,19.436,0,0,1,7.02,5.46,23.027,23.027,0,0,1,4.056,8.033,35.117,35.117,0,0,1,1.325,9.749v56.779a34.3,34.3,0,0,1-1.325,9.671,23.932,23.932,0,0,1-4.056,8.033,19.034,19.034,0,0,1-7.02,5.537A24.152,24.152,0,0,1,941.864,333.133Zm0-3.432a19.311,19.311,0,0,0,8.423-1.716,15.118,15.118,0,0,0,5.772-4.68,20.972,20.972,0,0,0,3.275-6.863,29.985,29.985,0,0,0,1.092-8.112V250.616a29.759,29.759,0,0,0-1.092-8.189,21.116,21.116,0,0,0-3.275-6.785,15.164,15.164,0,0,0-5.772-4.68,19.356,19.356,0,0,0-8.423-1.716,18.838,18.838,0,0,0-8.346,1.716,15.287,15.287,0,0,0-5.694,4.68,21.041,21.041,0,0,0-3.275,6.785,29.676,29.676,0,0,0-1.092,8.189v57.715a29.9,29.9,0,0,0,1.092,8.112,20.9,20.9,0,0,0,3.275,6.863,15.24,15.24,0,0,0,5.694,4.68A18.8,18.8,0,0,0,941.864,329.7Z" transform="translate(-919.246 -225.814)" fill="#fff"/>
        <path id="Trazado_84398" data-name="Trazado 84398" d="M1094.83,290.493q0-16.847-14.664-16.846a16.743,16.743,0,0,0-11.074,4.055q-4.837,4.058-5.148,12.011v69.726h-3.9V270.995h3.9v10.3h.156a19.273,19.273,0,0,1,6.006-7.8q4.13-3.275,11.153-3.275,8.267,0,12.869,4.757t4.6,15.365v69.1h-3.9Z" transform="translate(-1005.139 -252.9)" fill="#fff"/>
        <path id="Trazado_84399" data-name="Trazado 84399" d="M1223,331.362v7.758q0,21.1-19.811,21.1-9.826,0-15.286-5.772t-5.46-16.378V292.053q0-10.605,5.3-16.222t14.976-5.615q9.827,0,15.054,5.557t5.224,16.2v21.76H1186.34v24.712q0,8.7,4.369,13.522t12.478,4.819q15.913,0,15.911-17.364v-8.062ZM1186.34,310.3h32.6V291.74q0-8.734-4.133-13.414t-12.088-4.679q-7.956,0-12.167,4.679t-4.213,13.414Z" transform="translate(-1079.804 -252.9)" fill="#fff"/>
        <path id="Trazado_84400" data-name="Trazado 84400" d="M924.5,580.382v53.191h-4.056V527.814H924.5v51.164l33.069-51.164h4.367l-33.38,51.475,33.536,54.284h-4.367Z" transform="translate(-919.977 -410.044)" fill="#fff"/>
        <path id="Trazado_84401" data-name="Trazado 84401" d="M1071.8,631.362v7.757q0,21.1-19.811,21.1-9.827,0-15.286-5.772t-5.458-16.379V592.052q0-10.6,5.3-16.223t14.974-5.614q9.828,0,15.052,5.557t5.226,16.2v21.76h-36.657v24.712q0,8.7,4.368,13.521t12.477,4.819q15.911,0,15.912-17.364v-8.062ZM1035.144,610.3h32.6V591.741q0-8.734-4.133-13.415t-12.089-4.68q-7.956,0-12.167,4.68t-4.212,13.415Z" transform="translate(-987.569 -435.91)" fill="#fff"/>
        <path id="Trazado_84402" data-name="Trazado 84402" d="M1187.4,572.215,1164.943,663a31.787,31.787,0,0,1-1.794,5.537,10.551,10.551,0,0,1-2.495,3.587,9.23,9.23,0,0,1-3.667,1.95,20.292,20.292,0,0,1-5.459.624h-3.587v-3.431h3.431q4.833,0,6.784-2.089t3.2-7.041l2.651-10.525h-1.249l-18.717-79.4h4.056l17.316,73.313h.154l17.94-73.313Z" transform="translate(-1056.378 -437.13)" fill="#fff"/>
      </g>
      <g id="Grupo_15802" data-name="Grupo 15802" transform="translate(336.887 236.406)">
        <g id="Grupo_15797" data-name="Grupo 15797" transform="translate(0 71.43)">
          <g id="Grupo_15796" data-name="Grupo 15796">
            <path id="Trazado_84403" data-name="Trazado 84403" d="M408.052,540.111l-.157-62.278-54.386-31.807a8.312,8.312,0,1,0-2.791,4.771l51.658,30.212.149,59.116a8.312,8.312,0,1,0,5.527-.014Z" transform="translate(-336.98 -436.144)" fill="#0091da"/>
            <path id="Trazado_84404" data-name="Trazado 84404" d="M378.4,578.5l.019-27.289-25.086-15.146a8.313,8.313,0,1,0-2.857,4.731l22.413,13.534-.016,24.167a8.312,8.312,0,1,0,5.527,0Z" transform="translate(-336.887 -491.003)" fill="#005eb8"/>
          </g>
        </g>
        <path id="Trazado_84405" data-name="Trazado 84405" d="M533.234,348.8a8.308,8.308,0,0,0-15.366,5.67l-72.912,42.041a12.494,12.494,0,0,0-18.46,0l-72.913-42.041a8.312,8.312,0,1,0-2.76,4.788l72.93,42.051a12.51,12.51,0,0,0,9.186,15.84l-.023,84.633a8.312,8.312,0,1,0,5.527,0l.023-84.624a12.51,12.51,0,0,0,9.231-15.85l72.93-42.051A8.308,8.308,0,0,0,533.234,348.8Zm-97.508,64.456a8.3,8.3,0,1,1,8.3-8.3A8.305,8.305,0,0,1,435.726,413.252Z" transform="translate(-337.02 -308.89)" fill="#fff"/>
        <g id="Grupo_15799" data-name="Grupo 15799" transform="translate(120.77 71.43)">
          <g id="Grupo_15798" data-name="Grupo 15798">
            <path id="Trazado_84406" data-name="Trazado 84406" d="M722.023,440.261a8.307,8.307,0,0,0-15.33,5.765l-54.387,31.807-.157,62.278a8.311,8.311,0,1,0,5.527.014l.149-59.116,51.66-30.212a8.307,8.307,0,0,0,12.539-10.536Z" transform="translate(-646.581 -436.144)" fill="#0091da"/>
            <path id="Trazado_84407" data-name="Trazado 84407" d="M768.3,530.088a8.308,8.308,0,0,0-15.248,5.979l-25.085,15.146.019,27.289a8.312,8.312,0,1,0,5.527,0l-.018-24.167L755.913,540.8a8.307,8.307,0,0,0,12.391-10.71Z" transform="translate(-692.862 -491.003)" fill="#005eb8"/>
          </g>
        </g>
        <g id="Grupo_15801" data-name="Grupo 15801" transform="translate(31.037 0)">
          <g id="Grupo_15800" data-name="Grupo 15800">
            <path id="Trazado_84408" data-name="Trazado 84408" d="M551.6,302.423a8.308,8.308,0,0,0-15.377,5.64l-51.271,29.429-51.993-29.631a8.312,8.312,0,1,0-2.737,4.8l54.74,31.2,54.013-31A8.307,8.307,0,0,0,551.6,302.423Z" transform="translate(-416.477 -280.485)" fill="#0091da"/>
            <path id="Trazado_84409" data-name="Trazado 84409" d="M569.992,257.507a8.308,8.308,0,0,0-15.359,5.689l-20.922,12.1L510.785,262.65a8.312,8.312,0,1,0-2.669,4.84l25.66,14.151L557.4,267.98a8.308,8.308,0,0,0,12.592-10.474Z" transform="translate(-463.938 -252.975)" fill="#005eb8"/>
          </g>
        </g>
      </g>
    </g>
  </g>
</svg>
