<svg id="ic_m_reservation" xmlns="http://www.w3.org/2000/svg" width="40" height="40" viewBox="0 0 40 40">
  <rect id="Rectángulo_8767" data-name="Rectángulo 8767" width="40" height="40" fill="none"/>
  <g id="noun_Calendar_2080626" transform="translate(3.913 1.967)">
    <g id="Grupo_11508" data-name="Grupo 11508" transform="translate(2.5 3.4)">
      <path id="Trazado_82288" data-name="Trazado 82288" d="M42.15,60.3H39.689a.892.892,0,0,0-.889.889V62.7a.892.892,0,0,0,.889.889H42.15a.892.892,0,0,0,.889-.889V61.189A.912.912,0,0,0,42.15,60.3Z" transform="translate(-28.037 -43.43)" fill="#00338d"/>
      <path id="Trazado_82289" data-name="Trazado 82289" d="M20.75,60.3H18.289a.892.892,0,0,0-.889.889V62.7a.892.892,0,0,0,.889.889H20.75a.892.892,0,0,0,.889-.889V61.189A.912.912,0,0,0,20.75,60.3Z" transform="translate(-12.982 -43.43)" fill="#00338d"/>
      <path id="Trazado_82290" data-name="Trazado 82290" d="M42.15,41.6H39.689a.892.892,0,0,0-.889.889V44a.892.892,0,0,0,.889.889H42.15A.892.892,0,0,0,43.04,44V42.489A.912.912,0,0,0,42.15,41.6Z" transform="translate(-28.037 -30.274)" fill="#00338d"/>
      <path id="Trazado_82291" data-name="Trazado 82291" d="M20.75,41.6H18.289a.892.892,0,0,0-.889.889V44a.892.892,0,0,0,.889.889H20.75A.892.892,0,0,0,21.64,44V42.489A.912.912,0,0,0,20.75,41.6Z" transform="translate(-12.982 -30.274)" fill="#00338d"/>
      <path id="Trazado_82292" data-name="Trazado 82292" d="M63.55,41.6H61.089a.892.892,0,0,0-.889.889V44a.892.892,0,0,0,.889.889H63.55A.892.892,0,0,0,64.44,44V42.489A.912.912,0,0,0,63.55,41.6Z" transform="translate(-43.093 -30.274)" fill="#00338d"/>
      <path id="Trazado_82293" data-name="Trazado 82293" d="M28.265,20.537V8.766a2.964,2.964,0,0,0-.771-1.986V6.75h-.03a3.026,3.026,0,0,0-2.253-1.008H22.987V4.408A1,1,0,0,0,21.979,3.4H20.467a1,1,0,0,0-1.008,1.008V5.742H11.276V4.408A1,1,0,0,0,10.268,3.4H8.756A1,1,0,0,0,7.748,4.408V5.742H5.524A3.026,3.026,0,0,0,3.271,6.75h0v.03A2.964,2.964,0,0,0,2.5,8.766V24.925a3.037,3.037,0,0,0,3.024,3.024h14.2a5.806,5.806,0,1,0,8.539-7.412Zm-9.221,4.685a5.757,5.757,0,0,0,.059.712H5.524a1,1,0,0,1-1.008-1.008V12.591h21.7v7a5.215,5.215,0,0,0-1.364-.178A5.821,5.821,0,0,0,19.044,25.222Zm8.213-.593-2.4,2.579a.788.788,0,0,1-1.127,0l-1.423-1.542a.755.755,0,0,1,1.1-1.038l.889.949,1.838-1.986a.752.752,0,0,1,1.067-.03A.729.729,0,0,1,27.257,24.629Z" transform="translate(-2.5 -3.4)" fill="#00338d"/>
    </g>
  </g>
</svg>
