<svg id="ic_spacebo" xmlns="http://www.w3.org/2000/svg" width="40" height="40" viewBox="0 0 40 40">
  <g id="noun_time_zone_2406165" data-name="noun_time zone_2406165" transform="translate(5 5)">
    <g id="Grupo_11732" data-name="Grupo 11732" transform="translate(0 0)">
      <g id="Grupo_11729" data-name="Grupo 11729" transform="translate(15.497 15.497)">
        <g id="Grupo_11728" data-name="Grupo 11728">
          <path id="Trazado_82488" data-name="Trazado 82488" d="M73.5,66.3h0a7.211,7.211,0,0,0-7.2,7.2,7.184,7.184,0,1,0,7.2-7.2Zm3.561,4.617-2.824,3.365a1.114,1.114,0,1,1-1.67-1.474l.147-.147,3.512-2.652a.627.627,0,0,1,.884.1A.664.664,0,0,1,77.057,70.917Z" transform="translate(-66.3 -66.3)" fill="#00338d"/>
        </g>
      </g>
      <g id="Grupo_11731" data-name="Grupo 11731">
        <g id="Grupo_11730" data-name="Grupo 11730">
          <path id="Trazado_82489" data-name="Trazado 82489" d="M17.985,29.774c-1.326-.1-2.751-1.5-3.758-3.807a13.6,13.6,0,0,1-.614-1.695h3.61a9.02,9.02,0,0,1,.737-2.26H13.1c-.049-.246-.074-.491-.123-.737-.074-.516-.123-1.032-.147-1.572-.025-.516-.049-1.032-.049-1.572a24.091,24.091,0,0,1,.319-3.88h10.07a6.17,6.17,0,0,1,.1.663c.074.54.123,1.081.172,1.646.025.27.025.54.049.835a9.641,9.641,0,0,1,2.235-.344c0-.319-.025-.614-.049-.933-.049-.639-.123-1.277-.221-1.891h4.765a12.706,12.706,0,0,1,.614,3.88v.442a9.678,9.678,0,0,1,2.063,1.94,15.4,15.4,0,0,0,.2-2.407,14.627,14.627,0,0,0-1.056-5.5,4.638,4.638,0,0,0-.27-.614A14.962,14.962,0,0,0,4.5,12.017c-.1.2-.172.418-.27.614a15.11,15.11,0,0,0-1.032,5.5,14.627,14.627,0,0,0,1.056,5.5,4.639,4.639,0,0,0,.27.614,14.965,14.965,0,0,0,13.631,8.817,15.65,15.65,0,0,0,2.407-.2A8.981,8.981,0,0,1,17.985,29.774ZM29.234,12.017H24.985c-.074-.246-.123-.491-.2-.712A15.762,15.762,0,0,0,24.2,9.684a11.667,11.667,0,0,0-2.284-3.635A12.551,12.551,0,0,1,29.234,12.017Zm-11.1-5.526c1.375,0,2.824,1.4,3.856,3.758a11.487,11.487,0,0,1,.639,1.768H13.613C14.645,8.579,16.462,6.491,18.133,6.491ZM14.35,6.024a13.659,13.659,0,0,0-3.07,5.993H7.031A12.681,12.681,0,0,1,14.35,6.024ZM5.46,18.133a12.706,12.706,0,0,1,.614-3.88h4.765a21.971,21.971,0,0,0-.319,3.88c0,.663.025,1.3.074,1.94.049.663.123,1.326.221,1.94H6.049A12.693,12.693,0,0,1,5.46,18.133Zm1.572,6.115H11.28c.049.221.123.442.172.639a15.2,15.2,0,0,0,.614,1.695,11.667,11.667,0,0,0,2.284,3.635A12.551,12.551,0,0,1,7.031,24.248Z" transform="translate(-3.2 -3.2)" fill="#00338d"/>
        </g>
      </g>
    </g>
  </g>
  <rect id="Rectángulo_9202" data-name="Rectángulo 9202" width="40" height="40" fill="none"/>
</svg>
