<svg id="Ic_userbo" xmlns="http://www.w3.org/2000/svg" width="40" height="40" viewBox="0 0 40 40">
  <g id="noun_admin_371299" transform="translate(-7.908 -7.96)">
    <path id="Trazado_83875" data-name="Trazado 83875" d="M32.319,16.1a3.879,3.879,0,0,0-1.538-1.447,5.239,5.239,0,0,0-3.166-.678,3.923,3.923,0,0,0-1.266.226h0a5.9,5.9,0,0,0-1.4.724,6.915,6.915,0,0,0-1.4,1.176,5.715,5.715,0,0,0-1.538,2.713,5.207,5.207,0,0,0,.136,2.985c-.5-.045-1.085.226-.543,2.216.407,1.447.769,1.854,1.085,1.854a8.244,8.244,0,0,0,.859,2.578v1.9a.249.249,0,0,1-.136.226,42.954,42.954,0,0,0-6.828,4.251,4.352,4.352,0,0,0-1.673,3.392V40.2a.811.811,0,0,0,.814.814H39.871a.811.811,0,0,0,.814-.814v-1.99a4.219,4.219,0,0,0-1.673-3.392,41.289,41.289,0,0,0-6.783-4.251.249.249,0,0,1-.136-.226V28.175a7.5,7.5,0,0,0,.633-2.035c.271.181.769.09,1.311-1.809.452-1.538.181-2.08-.226-2.171C35.078,16.282,32.319,16.1,32.319,16.1Z" transform="translate(0 0)" fill="#00338d"/>
  </g>
  <rect id="Rectángulo_9074" data-name="Rectángulo 9074" width="40" height="40" fill="none"/>
</svg>
